<svg xmlns="http://www.w3.org/2000/svg" xmlns:xlink="http://www.w3.org/1999/xlink" width="100" height="100"><defs><path id="a" d="M0 .667h17.778V6H0z"/><path id="c" d="M.778 0h19.927v50H.778z"/></defs><g fill="none" fill-rule="evenodd"><g transform="translate(65 45)"><mask id="b" fill="#fff"><use xlink:href="#a"/></mask><path fill="#AAA" fill-opacity=".3" d="M8.89.667C12.69.667 16 2.814 17.777 6H0C1.778 2.814 5.088.667 8.89.667" mask="url(#b)"/></g><path fill="#9C452D" d="M48.778 61c5.037 0 9.77 1.28 13.927 3.517C61.648 56.863 55.829 51 48.778 51c-7.051 0-12.87 5.863-13.926 13.517A29.275 29.275 0 0 1 48.778 61"/><path fill="#AAA" fill-opacity=".3" d="M49 61c-12.929 0-23.922 8.35-28 20h56c-4.077-11.65-15.071-20-28-20"/><path fill="#AAA" fill-opacity=".6" d="M52 69h-6c-.999 4.571-5.735 10.3-10 12h26c-4.265-1.7-9.001-7.429-10-12"/><path fill="#DE5833" d="M58.44 41a41.48 41.48 0 0 0-2.617-10c-2.177-5.477-5.084-9.565-7.045-12-1.962 2.435-4.868 6.523-7.045 12a41.572 41.572 0 0 0-2.617 10c-.896 6.888.137 12.743 1.376 16.926.57 1.924 2.594 3.674 4.286 5.074h8c1.69-1.4 3.716-3.15 4.286-5.074C58.303 53.743 59.336 47.888 58.44 41"/><path fill="#FFF" d="M49.778 39a3 3 0 1 0-6 0 3 3 0 0 0 6 0"/><g transform="translate(42 19)"><mask id="d" fill="#fff"><use xlink:href="#c"/></mask><path fill="#9C452D" d="M12.439 42.554a29.425 29.425 0 0 1 8.266 2.963c-.537-3.891-2.31-7.313-4.844-9.743A40.565 40.565 0 0 0 16.44 22a41.492 41.492 0 0 0-2.617-10C11.646 6.524 8.739 2.435 6.778 0a49.345 49.345 0 0 0-2.315 3.13C6.04 5.45 7.839 8.423 9.26 12c1.17 2.946 2.202 6.285 2.686 10 .896 6.888-.137 12.743-1.376 16.926C10 40.85 8.807 42.6 7.116 44H2.778l-2 2v4h12v-4l-2-2c.54-.447 1.11-.933 1.66-1.446" mask="url(#d)"/></g><path fill="#AAA" fill-opacity=".3" d="M25.89 27c3.8 0 7.11 2.148 8.888 5.333H17C18.777 29.148 22.088 27 25.89 27"/></g></svg>